PathFileType	4	(X/Y/Z)	Kaydara	
DataRate	CameraRate	NumFrames	NumMarkers	Units	OrigDataRate	OrigDataStartFrame	OrigNumFrames	
120.00	120.00	4	72	mm	120.00	135	268	
Frame#	Time	Hips			RightUpLeg			RightLeg			RightFoot			RightFoot_End			LeftUpLeg			LeftLeg			LeftFoot			LeftFoot_End			Spine			Spine1			Spine2			Spine3			Neck			Head			Head_End			RightShoulder			RightArm			RightForeArm			RightHand			RightHandThumb1			RightHandThumb2			RightHandThumb3			RightHandThumb3_End			RightInHandIndex			RightHandIndex1			RightHandIndex2			RightHandIndex3			RightHandIndex3_End			RightInHandMiddle			RightHandMiddle1			RightHandMiddle2			RightHandMiddle3			RightHandMiddle3_End			RightInHandRing			RightHandRing1			RightHandRing2			RightHandRing3			RightHandRing3_End			RightInHandPinky			RightHandPinky1			RightHandPinky2			RightHandPinky3			RightHandPinky3_End			LeftShoulder			LeftArm			LeftForeArm			LeftHand			LeftHandThumb1			LeftHandThumb2			LeftHandThumb3			LeftHandThumb3_End			LeftInHandIndex			LeftHandIndex1			LeftHandIndex2			LeftHandIndex3			LeftHandIndex3_End			LeftInHandMiddle			LeftHandMiddle1			LeftHandMiddle2			LeftHandMiddle3			LeftHandMiddle3_End			LeftInHandRing			LeftHandRing1			LeftHandRing2			LeftHandRing3			LeftHandRing3_End			LeftInHandPinky			LeftHandPinky1			LeftHandPinky2			LeftHandPinky3			LeftHandPinky3_End			
		X1	Y1	Z1	X2	Y2	Z2	X3	Y3	Z3	X4	Y4	Z4	X5	Y5	Z5	X6	Y6	Z6	X7	Y7	Z7	X8	Y8	Z8	X9	Y9	Z9	X10	Y10	Z10	X11	Y11	Z11	X12	Y12	Z12	X13	Y13	Z13	X14	Y14	Z14	X15	Y15	Z15	X16	Y16	Z16	X17	Y17	Z17	X18	Y18	Z18	X19	Y19	Z19	X20	Y20	Z20	X21	Y21	Z21	X22	Y22	Z22	X23	Y23	Z23	X24	Y24	Z24	X25	Y25	Z25	X26	Y26	Z26	X27	Y27	Z27	X28	Y28	Z28	X29	Y29	Z29	X30	Y30	Z30	X31	Y31	Z31	X32	Y32	Z32	X33	Y33	Z33	X34	Y34	Z34	X35	Y35	Z35	X36	Y36	Z36	X37	Y37	Z37	X38	Y38	Z38	X39	Y39	Z39	X40	Y40	Z40	X41	Y41	Z41	X42	Y42	Z42	X43	Y43	Z43	X44	Y44	Z44	X45	Y45	Z45	X46	Y46	Z46	X47	Y47	Z47	X48	Y48	Z48	X49	Y49	Z49	X50	Y50	Z50	X51	Y51	Z51	X52	Y52	Z52	X53	Y53	Z53	X54	Y54	Z54	X55	Y55	Z55	X56	Y56	Z56	X57	Y57	Z57	X58	Y58	Z58	X59	Y59	Z59	X60	Y60	Z60	X61	Y61	Z61	X62	Y62	Z62	X63	Y63	Z63	X64	Y64	Z64	X65	Y65	Z65	X66	Y66	Z66	X67	Y67	Z67	X68	Y68	Z68	X69	Y69	Z69	X70	Y70	Z70	X71	Y71	Z71	X72	Y72	Z72	

135	1.117	8446.805	859.65103	-201.189	8506.724677796108	848.4819515039017	-234.52428196275156	8401.163001851415	450.1174461147803	-271.79216237487145	8466.82440994136	61.80497012212931	-371.7824115481015	8425.350673362314	-28.84810717117251	-225.97887486812326	8394.824249262943	842.4452319082956	-154.29842469699804	8271.423929275257	449.9260788888842	-80.26641367644783	8205.806690491243	73.33957798433991	84.2703347413604	8255.685214659718	24.229546131516717	259.17492311754523	8408.418607108073	984.2729549032713	-258.4498618587103	8359.66546116167	1055.2068582594136	-302.2430107292988	8303.140715745843	1124.3484945143136	-347.8914065545125	8241.194245999894	1182.9155950094228	-391.8986386367543	8174.084440196619	1245.512567214784	-435.142550362818	8131.958349711386	1318.832667417098	-394.5209801719891	8109.203582040692	1408.0151734953236	-266.0715227641027	8208.728795233052	1229.7308592136478	-435.2405705282976	8262.566243407524	1232.954787254914	-487.66589360992884	8350.94968640376	1056.8938105105133	-474.8541360930388	8425.622670575824	1026.2366038994574	-552.6428983893353	8431.952441136691	1045.278248671295	-558.1763831432279	8431.407965765937	1056.459766257714	-572.2633715391088	8431.906765945074	1061.4432725747226	-582.0778106762001	8433.073676321466	1063.1996531965297	-590.26332794635	8436.816201263493	1037.1229611007716	-557.92512688958	8452.260615584506	1042.727189811669	-569.3671616278582	8456.941925927309	1045.843261833945	-581.4651947267399	8454.60876999499	1049.1988989722765	-590.3651922313478	8449.140699756203	1052.9330972490013	-598.6616639589788	8438.378243330371	1029.2661068400114	-557.7350276401427	8454.288900475738	1030.4827511295066	-568.7912406496092	8459.545574651216	1032.827151673534	-581.9355689491811	8456.801923669824	1036.3689374412336	-592.6457247854426	8450.853478905943	1040.2085159295966	-601.7102659181709	8439.158120493077	1023.5629784740331	-557.2690528900205	8454.30024170838	1019.675541228467	-566.6570118139464	8459.007840847342	1020.6379261226757	-578.0383812263456	8456.42819897101	1023.4801874378275	-588.3292033263463	8450.866824218589	1026.8183218641318	-596.833213579014	8439.054855370729	1016.9003216421871	-556.7131456038969	8453.120707387101	1009.1980542986252	-564.8515347033054	8457.020182101514	1008.2992301993688	-573.8072250698173	8455.201370689656	1009.5648109750942	-581.2369211297168	8450.311033364458	1012.0570861937945	-588.7260820386878	8183.570793205454	1222.1692213630015	-405.07900371461506	8148.060086188414	1174.0050183856347	-353.7693321151004	8231.92159218316	1067.3102849363913	-470.06321970590653	8364.634087643879	1038.7164213471253	-446.76664179603176	8365.26269642315	1058.1957485997257	-450.76738840564747	8375.08668271813	1061.1672959206173	-468.49721256299256	8381.87102929494	1060.8043159643098	-482.6301690501979	8387.478017079258	1058.4208903215124	-495.93999796371213	8364.164098143185	1052.4380648588408	-456.8436086577342	8367.3561008835	1059.2998373790044	-481.86927505204943	8374.660784322987	1057.8013391798895	-502.9854701013993	8381.791179134749	1054.8750545359726	-514.7480933574254	8389.439416333762	1051.1075028881983	-523.5630698621169	8364.139374430077	1045.2853992701373	-461.00584779374276	8367.237934355038	1048.1110752138554	-487.66543262425114	8375.201530443386	1045.5020459767102	-511.1800478264165	8383.800610025284	1041.504253607462	-525.5980225400442	8392.16747756931	1037.1546755262852	-535.3534589343894	8363.989097736561	1040.1061061134585	-463.2869304347097	8366.485325334967	1038.286326542163	-489.0981694237518	8373.414683622657	1035.0118936551803	-510.0349054247997	8381.702948550634	1030.6244347713011	-524.1765437354883	8389.566962908097	1026.2829762231747	-533.4601664842227	8364.127971680278	1033.5505782391424	-465.3558096440757	8366.331823136583	1028.007222382826	-490.24305471097546	8371.85177038733	1023.8320233282361	-507.5845022095166	8377.88332173424	1019.8804802409671	-518.178143940551	8384.841533189147	1015.6022658336905	-526.5623033362822
136	1.125	8446.805	859.65103	-201.189	8506.30715132145	848.3563869383657	-234.5758223543822	8401.250491424347	449.8900751613743	-271.63889387614955	8467.341599936874	62.054881420592025	-372.3009517429693	8426.430489390084	-28.79100162124188	-226.70129234176406	8395.219421635276	842.5620735643848	-154.2516175391003	8271.788441122602	450.10508891031884	-79.96547337805917	8206.018462362224	73.49181635896032	84.43184932668174	8256.130640670617	24.289077556580807	259.2320229851797	8408.541599326314	984.3190059659684	-258.4255743305903	8359.858281002653	1055.338896323958	-302.1583865266278	8303.418517578773	1124.5980126304871	-347.73737849655083	8241.55664421955	1183.3059074664031	-391.6722803255087	8174.535387710608	1246.048127896242	-434.8337656221123	8132.391371686617	1319.3793316525005	-394.27415328430214	8109.658561615172	1408.6285627678628	-265.89413996625115	8209.041553014451	1230.1715969944623	-434.89786004364606	8262.48539244769	1233.3249063813778	-486.9980649974319	8350.994843764602	1057.8324570678533	-473.62491079844585	8425.313995851453	1027.9254012736005	-551.1737915025724	8431.6851065661	1047.1240480720712	-556.6036478491378	8431.242593749266	1058.4261270817128	-570.6414316815757	8431.804381385138	1063.4856342829532	-580.4315024051141	8433.016941391521	1065.2985656272754	-588.6051719912798	8436.515572888688	1038.9583833703493	-556.374446876701	8451.978662390773	1044.740957488652	-567.7454924523871	8456.717515887995	1047.9611320239123	-579.8150492504553	8454.449669795107	1051.3631506644235	-588.706274878051	8449.055578933323	1055.1233686485032	-597.0015109376166	8438.057271183241	1031.0727258877441	-556.2147331154079	8453.97512687475	1032.447748961824	-567.2181349911066	8459.291902827412	1034.9013420569884	-580.3356556821204	8456.625755337416	1038.4969719840042	-591.0372755719839	8450.757630122036	1042.363993320154	-600.1014598002769	8438.821797867218	1025.3448835890968	-555.7718753409993	8453.955579184121	1021.5784779011387	-565.1320984904944	8458.712808771861	1022.6312824168849	-576.4945472850773	8456.20646244208	1025.5229565387058	-586.7794963746986	8450.719915175918	1028.8856979932575	-595.2842896665084	8438.704246428333	1018.647105537586	-555.2459436311407	8452.751966482776	1011.0348793467663	-563.3768073079843	8456.686926179531	1010.2005155318384	-572.324403588925	8454.919517467888	1011.4982952182611	-579.7532294919733	8450.094279952657	1014.0101565862477	-587.2450486345045	8184.104988557123	1222.6955792824924	-404.8712563892267	8148.920759419982	1174.8225264067585	-353.827802201575	8232.43451880424	1068.335844908792	-469.2990404422858	8364.304575963295	1040.1239565692483	-445.88329798943175	8365.030703533017	1059.7200228928132	-449.8497824993494	8374.908262538633	1062.7268810395851	-467.4514562236295	8381.723497132018	1062.3831664080358	-481.49042539068955	8387.35074279126	1060.0112459542263	-494.7178433318384	8363.922019301472	1053.9625283960243	-455.9131506333178	8367.206590933321	1060.9461415302194	-480.81762135981484	8374.554429387623	1059.4866675277935	-501.8105094648754	8381.698028533594	1056.5544071733427	-513.4883521776151	8389.348004392385	1052.7615136152665	-522.2276782121006	8363.87560156368	1046.7889633130887	-460.0648547955178	8367.05272216378	1049.722187449247	-486.6005417646538	8375.06021965489	1047.1525313668526	-509.9795589441352	8383.67369928506	1043.1459890483493	-524.2947472793372	8392.041725204374	1038.767933389196	-533.967164425689	8363.70782819251	1041.5922496227474	-462.34192774041344	8366.259836285888	1039.8550610774096	-488.03964515230274	8373.224073463804	1036.6114905057289	-508.8573161841748	8381.52443033364	1032.2137564717016	-522.8993429845602	8389.388681778019	1027.8446521791789	-532.1046859380873	8363.822339066815	1035.0095363215137	-464.40701406177715	8366.063007685949	1029.5267359106012	-489.18890305979517	8371.605357874301	1025.3704957900065	-506.4341316867849	8377.64305564002	1021.4086743399548	-516.954692600654	8384.599938497075	1017.1043682819625	-525.2692649422177
137	1.133	8446.805	859.65103	-201.189	8505.889188445746	848.2304124312337	-234.62793223653512	8401.3376303868	449.66251151724026	-271.4875408941642	8467.857675919058	62.30476496768018	-372.8226911194121	8427.509108152786	-28.734071513370285	-227.4271728406963	8395.615075218731	842.6793684518552	-154.2041852685039	8272.153543240796	450.28445227756816	-79.66433322557445	8206.2308127637	73.64365268707134	84.59177276394209	8256.57603032116	24.347469014183776	259.28745408764064	8408.664421552914	984.3648926638846	-258.40149432622167	8360.050743666021	1055.4705404973613	-302.0740526438708	8303.695710146365	1124.846811717653	-347.58368606072196	8241.918166806534	1183.6951371845284	-391.4462007205218	8174.98517880121	1246.582223868617	-434.5251792303686	8132.822932130664	1319.9244629251355	-394.02772732414985	8110.112396829013	1409.2406909024148	-265.71731523264515	8209.35300796116	1230.610593470166	-434.55559590359996	8262.402037510608	1233.6912458125862	-486.3312081727699	8351.033601009047	1058.7666074808749	-472.39432094629376	8424.995026947803	1029.604293836145	-549.698953181612	8431.407014293494	1048.9587716198876	-555.0255965646761	8431.065864114698	1060.3804728674043	-569.013657719851	8431.690202213216	1065.5153776506875	-578.7788698650332	8432.948031110618	1067.3844001829775	-586.9401724822187	8436.204074024097	1040.7827773215838	-554.8180821348988	8451.684892680922	1046.7422846872123	-566.1174839977394	8456.480638405832	1050.065722896325	-578.1578054258384	8454.277790599996	1053.5137487528928	-587.0397767932268	8448.957484061482	1057.299775952293	-595.3333708538589	8437.72540957068	1032.868510630135	-554.6884104029975	8453.649530816596	1034.4006400109968	-565.6381770258415	8459.025698829995	1036.9625406768323	-578.7280182382293	8456.436679230694	1040.6115777700245	-589.4204992940256	8450.648660273833	1044.505818720327	-598.4838718530033	8438.474596121601	1027.1161260948102	-554.2684457603808	8453.599209235592	1023.4697564887334	-563.6000064108136	8458.405452741968	1024.612242325643	-574.9427314000952	8455.972040756971	1027.5529252923511	-585.2212029715374	8450.56012094978	1030.9400721973711	-593.7263408217473	8438.34280076289	1020.3834767340167	-553.7722340025027	8452.371653665681	1012.8605275321961	-561.8945715363647	8456.341611481339	1012.0900887142318	-570.8333671007858	8454.625345312292	1013.4197997085635	-578.260851214695	8449.865032317059	1015.9510842274682	-585.7549224990232	8184.6383889395565	1223.2210289477014	-404.6635629492693	8149.781855369367	1175.6404684998984	-353.8849873998082	8232.946350917717	1069.3585276678873	-468.5308890822738	8363.970927875625	1041.5235339935757	-444.9965916464528	8364.793678100117	1061.2353889145168	-448.9286963636454	8374.724100617186	1064.2770656434493	-466.4021644772588	8381.569856964405	1063.9522878334835	-480.347073213342	8387.217164339785	1061.5916109390603	-493.49198956049463	8363.675293498376	1055.477988495913	-454.9790562266167	8367.052082478318	1062.5821536569106	-479.7618751499409	8374.442776266664	1061.1611233745623	-500.6312511525159	8381.599286541068	1058.2227883644236	-512.2243110474444	8389.250686269723	1054.404647683858	-520.8880692291675	8363.607538471064	1048.283622682091	-459.1201522893129	8366.86306983526	1051.323191492318	-485.5314569106192	8374.91418985985	1048.7922927555187	-508.7746441699656	8383.541738897882	1044.7768895636557	-522.987039530135	8391.910589985762	1040.3704641495083	-532.5765259541658	8363.422530749682	1043.0695877428977	-461.3931740572343	8366.030416578405	1041.4139879451016	-486.9768954227186	8373.029339010602	1038.2007628766667	-507.6752919359384	8381.341495142065	1033.7926572817398	-521.6176969192825	8389.205682813603	1029.3960136415699	-530.7448414453781	8363.512980662	1036.4598673581804	-463.4544443776405	8365.790746206902	1031.036801318844	-488.1305228395335	8371.355420955191	1026.899141776381	-505.27935528877026	8377.399088749591	1022.9269888079601	-515.7268232689607	8384.354397842964	1018.5966952291432	-523.9718779883649
138	1.142	8446.805	859.65103	-201.189	8505.470824674501	848.104037557527	-234.68060934130557	8401.424409643298	449.4347747308395	-271.33812520620313	8468.372586772399	62.55459839052551	-373.3475970800979	8428.58642796709	-28.677322676262804	-228.15646675087856	8396.01117668204	842.7971079437282	-154.156129512886	8272.519205621871	450.46415434424074	-79.36301938143046	8206.443725447523	73.79507149290468	84.75008392991211	8257.021343862263	24.40471034826075	259.3412043662192	8408.787062132049	984.4106102449052	-258.3776248195194	8360.242830510173	1055.6017774257812	-301.9900177821417	8303.972266228404	1125.094866651059	-347.4303443380186	8242.278777905556	1184.0832449761608	-391.2204211588141	8175.433768572853	1247.11480141694	-434.21681957804014	8133.252986492706	1320.468006291473	-393.7817260244018	8110.565042615398	1409.8514981386156	-265.5410667407722	8209.66312691437	1231.0478022471189	-434.2138105807531	8262.316175700393	1234.0537570342972	-485.665387051243	8351.06592748738	1059.6961590716642	-471.16247131340936	8424.6657483171	1031.2730878499096	-548.21849153772	8431.11814348986	1050.7822064757518	-553.442348625565	8430.877744521269	1062.3225758161534	-567.3801714580918	8431.56418865358	1067.5322653749804	-577.1200351312482	8432.866900003004	1069.4569124189093	-585.2684504818592	8435.881686194381	1042.595931192398	-553.2561484220656	8451.379282410375	1048.7309374159452	-564.4832558142484	8456.231261547271	1052.1567873699523	-576.4935823302656	8454.093093326539	1055.650440305397	-585.3658159371197	8448.84636862555	1059.4620629277429	-593.6573601880948	8437.382641603808	1034.6532526767357	-553.1561710428641	8453.31209083959	1036.3411960277942	-564.0514797122016	8458.74693281122	1039.010505520186	-577.1127684870697	8456.234656982931	1042.7125059768493	-587.7955061985101	8450.526522914515	1046.6337398178027	-596.8576105704498	8438.116499673752	1028.876500527423	-552.7588726342578	8453.231113443338	1025.3491562044917	-562.0608427481948	8458.085747262916	1026.5805736287375	-573.3830392077828	8455.724900327974	1029.569855209173	-583.6544268758971	8450.387400414033	1032.9812028472134	-592.1594690077061	8437.970504116698	1022.1092339630572	-552.2921213941437	8451.979753036761	1014.6747860356668	-560.4049285897361	8455.984216819403	1013.9677287171385	-569.334214664383	8454.318827314739	1015.3290993009674	-576.7598835465412	8449.62325697671	1017.8796414543584	-584.2557990361024	8185.170943499655	1223.7455197580362	-404.45594211940414	8150.6432990725525	1176.4587734851991	-353.9408769713664	8233.45703832319	1070.3782293852507	-467.75881738092346	8363.633155997686	1042.9149936808885	-444.10658807544047	8364.551620079728	1062.7416723446936	-448.0041982066029	8374.534189148279	1065.817670213764	-465.34941689225377	8381.410096705209	1065.51149761372	-479.20020023817307	8387.077267029646	1063.1618004953373	-492.26253137096467	8363.42392322373	1056.984270332589	-454.04139404523016	8366.892568127987	1064.2076824988185	-478.7021141169813	8374.32581245805	1062.824509473408	-499.44778307124164	8381.494938297328	1059.8800009907013	-510.9560654565155	8389.147445707551	1056.03671067864	-519.5443455112425	8363.335191124837	1049.7692047737894	-458.17180940493336	8366.66897558844	1052.9138999107777	-484.45825633644745	8374.763434193297	1050.4211365313029	-507.56539296621736	8383.40471939116	1046.3967618663187	-521.6749979242277	8391.774061026	1041.9620775603773	-531.1816499397353	8363.133214080866	1044.5379498049058	-460.4407386159255	8365.797070243752	1042.9629247040114	-485.90999764303353	8372.830480380184	1039.7795233261945	-506.4889198708885	8381.154140852377	1035.3609502770273	-520.3317015917448	8389.01796269109	1030.9368766414666	-529.3807363888536	8363.199908635725	1037.901403821074	-462.49816995994377	8365.51504872282	1032.5372420276944	-487.0679908851845	8371.101967346129	1028.4177813558788	-504.1202576975061	8377.151427544793	1024.4352444066135	-514.4946270974325	8384.104916875685	1020.0790702366584	-522.6702401241853
